<svg version="1.2" xmlns="http://www.w3.org/2000/svg" viewBox="0 0 800 800" width="800" height="800">
	<style>
		.s0 { fill: #000000 } 
	</style>
	<path id="Layer copy" fill-rule="evenodd" class="s0" d="m787 555.17c0 34.25-13.61 67.11-37.82 91.34-24.23 24.21-57.09 37.82-91.35 37.82-137.48 0-379.18 0-516.66 0-34.26 0-67.12-13.61-91.35-37.82-24.21-24.23-37.82-57.09-37.82-91.34 0-90.06 0-219.95 0-310 0-34.26 13.61-67.12 37.82-91.35 24.23-24.21 57.09-37.82 91.35-37.82 137.48 0 379.18 0 516.66 0 34.26 0 67.12 13.61 91.35 37.82 24.21 24.23 37.82 57.09 37.82 91.35 0 90.05 0 219.94 0 310zm-686.03-315.71c0 0 132.91 109.45 216.28 178.09 47.76 39.35 116.74 39.27 164.43-0.18 83.62-69.15 217.33-179.77 217.33-179.77 10.98-9.1 12.53-25.4 3.44-36.38-9.07-10.97-25.37-12.52-36.38-3.43 0 0-133.71 110.59-217.31 179.77-28.62 23.67-70 23.72-98.68 0.11l-216.28-178.1c-11-9.07-27.28-7.49-36.34 3.51-9.07 11.01-7.5 27.31 3.51 36.38z"/>
	<g id="Icon">
	</g>
</svg>