<svg version="1.2" xmlns="http://www.w3.org/2000/svg" viewBox="0 0 800 800" width="800" height="800">
	<style>
		.s0 { fill: #000000 } 
	</style>
	<path fill-rule="evenodd" class="s0" d="m775 550c0 33.15-13.17 64.95-36.6 88.4-23.45 23.42-55.25 36.6-88.4 36.6-133.05 0-366.95 0-500 0-33.15 0-64.95-13.17-88.4-36.6-23.42-23.45-36.6-55.25-36.6-88.4 0-87.15 0-212.85 0-300 0-33.15 13.18-64.95 36.6-88.4 23.45-23.42 55.25-36.6 88.4-36.6 133.05 0 366.95 0 500 0 33.15 0 64.95 13.18 88.4 36.6 23.42 23.45 36.6 55.25 36.6 88.4 0 87.15 0 212.85 0 300zm-663.9-305.52c0 0 128.63 105.92 209.3 172.35 46.23 38.07 112.98 38 159.12-0.18 80.93-66.92 210.33-173.97 210.33-173.97 10.62-8.8 12.12-24.58 3.32-35.2-8.77-10.63-24.55-12.13-35.2-3.33 0 0-129.4 107.02-210.3 173.98-27.7 22.9-67.75 22.95-95.5 0.09l-209.3-172.34c-10.65-8.78-26.4-7.25-35.17 3.4-8.78 10.65-7.25 26.42 3.4 35.2z"/>
	<g id="Icon">
	</g>
</svg>