<svg version="1.2" xmlns="http://www.w3.org/2000/svg" viewBox="0 0 800 800" width="800" height="800">
	<style>
		.s0 { fill: #000000 } 
	</style>
	<path id="Layer copy" class="s0" d="m726.56 10.07h-650.78c-8.38-0.39-16.77 0.87-24.67 3.72-7.89 2.85-15.15 7.23-21.36 12.89-6.2 5.66-11.23 12.49-14.79 20.1-3.56 7.6-5.58 15.83-5.96 24.22v652.24c0.49 17.56 7.69 34.26 20.1 46.68 12.42 12.42 29.13 19.61 46.68 20.11h650.78c17.07-0.76 33.16-8.18 44.82-20.67 11.67-12.48 17.98-29.04 17.58-46.12v-652.24c0.14-8.16-1.39-16.27-4.5-23.82-3.1-7.55-7.72-14.39-13.57-20.1-5.84-5.7-12.78-10.16-20.41-13.08-7.62-2.93-15.76-4.26-23.92-3.93zm-473.82 650.29h-113.58v-347.57h113.58zm-54.11-400.21c-7.93 0.27-15.83-1.09-23.2-4.02-7.37-2.92-14.06-7.33-19.65-12.96-5.58-5.63-9.94-12.36-12.8-19.76-2.86-7.39-4.17-15.3-3.82-23.22-0.36-8.01 0.97-16.01 3.89-23.47 2.92-7.47 7.37-14.24 13.06-19.89 5.69-5.64 12.5-10.04 19.99-12.9 7.49-2.86 15.5-4.12 23.5-3.7 7.93-0.28 15.82 1.09 23.2 4.01 7.37 2.92 14.06 7.34 19.64 12.97 5.59 5.63 9.95 12.35 12.81 19.75 2.86 7.39 4.16 15.3 3.82 23.23 0.35 8.01-0.97 16-3.89 23.46-2.92 7.47-7.37 14.24-13.06 19.89-5.7 5.64-12.5 10.04-19.99 12.9-7.49 2.86-15.5 4.12-23.5 3.71zm460.66 400.21h-114.07v-190.11c0-45.34-16.09-76.54-56.55-76.54-12.56 0.11-24.8 4.1-35 11.44-10.22 7.33-17.91 17.64-22.03 29.51-3.17 8.9-4.5 18.35-3.9 27.79v197.91h-112.12v-347.57h112.12v48.75c9.97-18.31 24.8-33.51 42.87-43.93 18.06-10.4 38.65-15.61 59.5-15.05 73.61 0 129.18 48.74 129.18 152.58z"/>
</svg>