<svg viewBox="0 0 24 24" xmlns="http://www.w3.org/2000/svg" aria-hidden="true">
  <path fill="currentColor" d="M18.72 4H5.37a1.25 1.25 0 0 0-1.25 1.25v13.38A1.25 1.25 0 0 0 5.37 20h13.35a1.25 1.25 0 0 0 1.25-1.25V5.25A1.25 1.25 0 0 0 18.72 4ZM9 17.34H6.67v-7.13H9v7.13Zm-1.11-8.21a1.24 1.24 0 1 1 0-2.48 1.24 1.24 0 0 1 0 2.48Zm11.45 8.21H15v-3.9c0-.93-.34-1.57-1.16-1.57a1.2 1.2 0 0 0-1.12.84 1.57 1.57 0 0 0-.07.56v4.07h-2.3v-7.13h2.3v1c.3-.46 1.03-1.12 2.1-1.12 1.51 0 2.64 1 2.64 3.13v4.12Z"/>
</svg>
