<svg version="1.2" xmlns="http://www.w3.org/2000/svg" viewBox="0 0 800 800" width="800" height="800">
	<style>
		.s0 { fill: #000000 } 
	</style>
	<path class="s0" d="m624 133.33h-445c-5.74-0.27-11.47 0.6-16.87 2.55-5.4 1.95-10.36 4.94-14.61 8.81-4.24 3.87-7.67 8.54-10.11 13.74-2.43 5.2-3.82 10.83-4.08 16.57v446c0.34 12 5.26 23.43 13.75 31.92 8.49 8.49 19.91 13.41 31.92 13.75h445c11.67-0.52 22.67-5.6 30.65-14.13 7.98-8.54 12.29-19.86 12.02-31.54v-446c0.09-5.58-0.95-11.13-3.08-16.29-2.12-5.17-5.28-9.84-9.27-13.74-4-3.91-8.75-6.95-13.96-8.95-5.21-2-10.78-2.92-16.36-2.69zm-324 444.67h-77.67v-237.67h77.67zm-37-273.66c-5.42 0.18-10.82-0.75-15.86-2.75-5.04-2-9.62-5.01-13.44-8.86-3.81-3.85-6.8-8.45-8.75-13.51-1.96-5.06-2.85-10.47-2.62-15.88-0.24-5.48 0.67-10.95 2.67-16.05 2-5.11 5.04-9.74 8.93-13.6 3.89-3.86 8.55-6.86 13.67-8.82 5.12-1.95 10.59-2.82 16.07-2.53 5.42-0.19 10.82 0.74 15.86 2.74 5.04 2 9.61 5.02 13.43 8.87 3.82 3.85 6.8 8.44 8.76 13.5 1.96 5.06 2.85 10.47 2.61 15.89 0.24 5.47-0.66 10.94-2.66 16.04-2 5.11-5.04 9.74-8.93 13.6-3.89 3.86-8.55 6.87-13.67 8.82-5.12 1.96-10.6 2.82-16.07 2.54zm315 273.66h-78v-130c0-31-11-52.33-38.67-52.33-8.59 0.07-16.95 2.8-23.93 7.82-6.99 5.01-12.25 12.06-15.07 20.18-2.16 6.09-3.07 12.55-2.66 19v135.33h-76.67v-237.66h76.67v33.33c6.81-12.52 16.96-22.92 29.31-30.04 12.35-7.11 26.43-10.68 40.69-10.29 50.33 0 88.33 33.33 88.33 104.33z"/>
</svg>