<svg version="1.2" xmlns="http://www.w3.org/2000/svg" viewBox="0 0 800 800" width="800" height="800">
	<style>
		.s0 { fill: #000000 } 
	</style>
	<path id="Layer copy" class="s0" d="m398.91 12c-213.78 0.52-386.91 173.95-386.91 387.81 0 214.17 173.61 387.82 387.81 387.82 214.2 0 387.82-173.62 387.82-387.82 0-213.86-173.13-387.29-386.86-387.81h-0.06q-0.9 0-1.8 0zm159.45 232.15q0.25 0 0.57 0c5.38 0 10.38 1.67 14.47 4.55l-0.08-0.05c2.99 2.6 5 6.26 5.49 10.38v0.08c0.51 3.14 0.8 6.74 0.8 10.43q0 2.5-0.18 4.97v-0.23c-5.8 61-30.93 208.94-43.7 277.23-5.41 28.92-16.05 38.6-26.35 39.53-22.37 2.09-39.37-14.78-61.05-29-33.94-22.27-53.13-36.12-86.06-57.83-38.09-25.06-13.39-38.89 8.29-61.39 5.69-5.93 104.34-95.67 106.27-103.81q0.16-0.74 0.16-1.59c0-2.01-0.75-3.84-1.96-5.23-1.34-0.88-3.01-1.36-4.76-1.36-1.16 0-2.27 0.23-3.3 0.61l0.05-0.02q-5.1 1.16-162.64 107.48c-11.46 9.04-25.93 14.76-41.69 15.43h-0.16c-22.32-2.71-42.59-7.68-61.83-14.76l1.91 0.62c-24.15-7.88-43.34-12.03-41.69-25.36q1.31-10.41 28.69-21.3 168.61-73.47 224.88-96.85c41.38-21.97 89.36-40.04 139.8-51.76 0 0 4.05-0.8 4.07-0.77z"/>
</svg>