<svg viewBox="0 0 24 24" xmlns="http://www.w3.org/2000/svg" aria-hidden="true">
  <path fill="currentColor" d="M12 2C6.48 2 2 6.48 2 12s4.48 10 10 10 10-4.48 10-10S17.52 2 12 2Zm4.64 7.8c-.18 1.9-.96 6.5-1.36 8.6-.17.9-.5 1.2-.82 1.24-.7.07-1.23-.46-1.9-.9-1.06-.7-1.66-1.13-2.69-1.83-.95-.63-.33-.98.21-1.54.14-.15 2.71-2.48 2.76-2.71a.2.2 0 0 0-.05-.18.18.18 0 0 0-.15-.05c-.06 0-1.37.87-3.87 2.45-.37.29-.7.43-1.01.44-.6-.07-1.14-.21-1.66-.4.67-.22 1.29-.47 1.87-.77 2.69-1.17 4.48-1.94 5.36-2.32 1.05-.44 1.89-.8 2.48-1.03l.16-.05Z"/>
</svg>
