<svg xmlns="http://www.w3.org/2000/svg" fill="none" viewBox="0 0 24 24" id="Admin-Panel-Settings--Streamline-Outlined-Material" height="24" width="24">
  <desc>
    Admin Panel Settings Streamline Icon: https://streamlinehq.com
  </desc>
  <path fill="#000000" d="M17.272 17.2501c0.43135 0 0.798 -0.15835 1.1 -0.475 0.302 -0.31665 0.453 -0.69065 0.453 -1.122 0 -0.43135 -0.151 -0.798 -0.453 -1.1 -0.302 -0.302 -0.66865 -0.453 -1.1 -0.453 -0.43135 0 -0.80535 0.151 -1.122 0.453 -0.31665 0.302 -0.475 0.66865 -0.475 1.1 0 0.43135 0.15835 0.80535 0.475 1.122 0.31665 0.31665 0.69065 0.475 1.122 0.475Zm-0.0345 3.125c0.55835 0 1.0625 -0.11665 1.5125 -0.35 0.45 -0.23335 0.83335 -0.56665 1.15 -1 -0.43335 -0.23335 -0.86635 -0.40835 -1.299 -0.525 -0.43265 -0.11665 -0.88265 -0.175 -1.35 -0.175 -0.46735 0 -0.92185 0.05835 -1.3635 0.175 -0.44165 0.11665 -0.87085 0.29165 -1.2875 0.525 0.31665 0.43335 0.69585 0.76665 1.1375 1 0.44165 0.23335 0.94165 0.35 1.5 0.35ZM12 22.0001c-2.3 -0.53335 -4.20835 -1.8375 -5.725 -3.9125C4.758335 16.0126 4 13.63345 4 10.9501v-5.975l8 -3 8 3v6.75c-0.23335 -0.11665 -0.48335 -0.22085 -0.75 -0.3125 -0.26665 -0.09165 -0.51665 -0.15415 -0.75 -0.1875v-5.2l-6.5 -2.4 -6.5 2.4v4.925c0 1.26665 0.20415 2.43335 0.6125 3.5 0.40835 1.06665 0.92915 2.00415 1.5625 2.8125 0.63335 0.80835 1.33335 1.47915 2.1 2.0125 0.76665 0.53335 1.50835 0.91665 2.225 1.15 0.1 0.2 0.25 0.425 0.45 0.675 0.2 0.25 0.36665 0.44165 0.5 0.575 -0.15 0.08335 -0.30835 0.14585 -0.475 0.1875 -0.16665 0.04165 -0.325 0.0875 -0.475 0.1375Zm5.3125 0c-1.29165 0 -2.39585 -0.4625 -3.3125 -1.3875 -0.91665 -0.925 -1.375 -2.02085 -1.375 -3.2875 0 -1.30715 0.45825 -2.4215 1.37475 -3.343 0.9165 -0.92135 2.0249 -1.382 3.32525 -1.382 1.28335 0 2.3875 0.46065 3.3125 1.382 0.925 0.9215 1.3875 2.03585 1.3875 3.343 0 1.26665 -0.4625 2.3625 -1.3875 3.2875 -0.925 0.925 -2.03335 1.3875 -3.325 1.3875Z" stroke-width="0.5"></path>
</svg>